<svg width="184" height="73" viewBox="0 0 184 73" fill="none" xmlns="http://www.w3.org/2000/svg">
<path d="M36.8256 0.0806835C37.092 0.0813525 37.3585 0.0816852 37.625 0.0819946C40.2065 0.0863493 42.7753 0.130113 45.3449 0.443296C45.6024 0.474636 45.86 0.504749 46.1176 0.534783C54.4858 1.52351 62.7751 3.88465 78.6593 12.1388C78.9238 12.31 79.1903 12.476 79.4578 12.6407C80.4797 13.2712 81.4808 13.9328 82.4678 14.634C82.5777 14.712 82.6876 14.7899 82.8009 14.8702C83.395 15.2962 83.9759 15.7361 84.5494 16.198C84.7284 16.3403 84.9075 16.4824 85.0867 16.6245C85.2559 16.7606 85.4226 16.9008 85.5892 17.0411C86.1038 17.4749 86.1038 17.4749 86.7068 17.6301C86.957 17.5413 87.1688 17.4162 87.4 17.2739C87.6315 17.157 87.8634 17.0411 88.0956 16.9259C88.2983 16.8215 88.5006 16.716 88.703 16.6106C97.7461 11.9082 107.111 7.88129 138.92 0.118314C139 0.115893 139.08 0.113472 139.162 0.110977C142.393 0.0194538 146.539 0.124048 149.078 2.80257C149.944 3.87301 150.206 5.09964 150.192 6.52208C149.996 9.78531 147.894 12.7564 146.037 15.0486C145.786 15.3598 145.54 15.676 145.296 15.9946C144.681 16.7871 144.037 17.5343 143.338 18.2278C143.113 18.4554 142.893 18.689 142.674 18.9243C142.056 19.5879 141.417 20.2116 140.76 20.8233C140.639 20.9384 140.518 21.0537 140.398 21.169C139.392 22.1282 138.358 23.0378 137.311 23.9363C137.101 24.1176 136.893 24.3007 136.685 24.4851C136.627 24.5357 136.57 24.5863 136.511 24.6384C136.364 24.7688 136.217 24.8996 136.07 25.0304C135.853 25.201 135.853 25.201 135.649 25.201C135.633 25.1279 135.616 25.0549 135.6 24.9796C135.422 24.2317 135.175 23.6191 134.831 22.953C134.797 23.4215 134.764 23.89 134.729 24.3728C134.695 24.3728 134.661 24.3728 134.627 24.3728C134.627 23.7871 134.627 23.2015 134.627 22.5981C134.154 22.5981 133.682 22.5981 133.196 22.5981C133.196 22.559 133.196 22.52 133.196 22.4797C133.567 22.4407 133.938 22.4017 134.32 22.3614C134.151 22.2053 133.983 22.0491 133.809 21.8882C133.891 21.7946 133.973 21.7011 134.057 21.6047C134.366 21.2519 134.674 20.8982 134.981 20.5443C135.114 20.3923 135.246 20.2405 135.379 20.0889C136.166 19.1895 136.913 18.288 137.591 17.2739C137.644 17.1978 137.696 17.1216 137.75 17.0431C139.03 15.1751 140.27 12.8891 140.185 10.4228C140.06 9.21591 139.602 8.36967 138.818 7.57212C134.78 4.13728 127.994 5.49169 123.35 6.31249C114.386 7.92994 105.614 11.0032 88.0133 18.812C88.334 19.2094 88.6892 19.5173 89.0739 19.8251C89.8326 20.4429 90.5613 21.0977 91.2844 21.7699C91.3501 21.8307 91.4157 21.8916 91.4834 21.9544C92.734 23.1162 93.9593 24.3084 95.1469 25.5559C95.3502 25.7684 95.5559 25.9771 95.7631 26.1845C96.6632 27.096 97.5298 28.0413 98.3705 29.0259C98.4439 29.1117 98.5172 29.1975 98.5928 29.2859C98.8953 29.6404 99.1975 29.9952 99.4988 30.3511C100.625 31.6899 100.625 31.6899 101.898 32.8305C102.577 33.3788 102.94 34.1569 103.328 34.9802C103.622 35.5885 103.985 36.0704 104.403 36.5739C104.718 36.9671 105.004 37.3787 105.289 37.8015C105.337 37.8725 105.385 37.9434 105.434 38.0166C105.633 38.3139 105.824 38.6122 106.004 38.9254C106.005 38.8033 106.005 38.8033 106.005 38.6787C106.007 37.8303 106.012 36.982 106.02 36.1337C106.023 35.8171 106.024 35.5007 106.024 35.1842C106.025 34.7289 106.03 34.2738 106.034 33.8185C106.034 33.6772 106.034 33.536 106.033 33.3904C106.05 32.2935 106.05 32.2935 106.354 31.8574C106.754 31.4523 106.996 31.4381 107.511 31.4458C107.828 31.4812 108.012 31.5896 108.253 31.8266C108.524 32.2705 108.474 32.7397 108.455 33.2582C108.449 33.4584 108.444 33.6586 108.439 33.8588C108.434 34.0181 108.434 34.0181 108.43 34.1806C108.412 34.872 108.406 35.5637 108.398 36.2552C108.39 36.858 108.379 37.46 108.358 38.0624C108.244 41.5035 108.626 43.6704 110.542 46.3489C110.922 46.8854 111.231 47.4704 111.537 48.0652C111.64 48.2595 111.742 48.4538 111.844 48.648C112.366 49.6569 112.869 50.6774 113.364 51.7034C113.412 51.8003 113.459 51.8972 113.507 51.997C116.499 58.1512 118.907 64.6988 120.705 71.4471C120.731 71.5406 120.756 71.634 120.782 71.7303C120.894 72.1652 120.942 72.449 120.827 72.8817C120.771 72.7484 120.716 72.615 120.658 72.4777C119.245 69.0659 119.245 69.0659 117.703 65.7307C117.542 65.3991 117.383 65.0656 117.225 64.7319C115.891 61.9293 114.444 59.23 112.911 56.5691C112.85 56.4629 112.789 56.3567 112.726 56.2473C112.002 54.9934 111.268 53.7512 110.502 52.5316C110.406 52.3774 110.406 52.3774 110.307 52.2202C109.542 51.0024 108.759 49.8037 107.947 48.6272C107.838 48.4694 107.838 48.4694 107.728 48.3083C106.913 47.1244 106.081 45.9588 105.233 44.8067C105.133 44.6705 105.033 44.5342 104.933 44.3977C104.218 43.4213 103.487 42.4656 102.733 41.5284C102.668 41.5929 102.668 41.5929 102.602 41.6587C102.475 41.7846 102.348 41.9102 102.22 42.0354C102.095 42.1613 101.971 42.29 101.85 42.4227C100.812 43.5427 99.5261 43.8129 98.157 43.807C98.0389 43.8074 97.9208 43.8078 97.7991 43.8082C97.4106 43.8092 97.0221 43.8086 96.6335 43.8078C96.363 43.8079 96.0924 43.8082 95.8218 43.8084C95.2557 43.8089 94.6896 43.8083 94.1236 43.8072C93.4695 43.8059 92.8154 43.8063 92.1614 43.8076C91.531 43.8088 90.9006 43.8087 90.2702 43.808C90.0023 43.8078 89.7345 43.808 89.4666 43.8086C89.0929 43.8092 88.7193 43.8083 88.3456 43.807C88.2347 43.8074 88.1237 43.8079 88.0093 43.8084C87.9076 43.8077 87.8058 43.8071 87.701 43.8064C87.6128 43.8063 87.5245 43.8062 87.4336 43.8061C87.1703 43.7732 87.0091 43.7045 86.7867 43.5397C86.4942 43.0198 86.422 42.6171 86.48 42.0016C86.6527 41.5618 86.8445 41.3114 87.1956 41.0551C87.4282 41.0109 87.4282 41.0109 87.688 41.0111C87.8363 41.0099 87.8363 41.0099 87.9876 41.0087C88.0954 41.0096 88.2032 41.0105 88.3143 41.0115C88.4283 41.011 88.5424 41.0106 88.6599 41.0101C88.9078 41.0093 89.1557 41.0094 89.4035 41.0101C89.7963 41.0112 90.1891 41.01 90.5819 41.0082C91.558 41.004 92.5341 41.0031 93.5102 41.0034C94.3341 41.0037 95.158 41.002 95.9819 40.9977C96.368 40.9964 96.754 40.9979 97.1401 40.9993C97.3785 40.9983 97.6169 40.9971 97.8553 40.9957C98.0151 40.9975 98.0151 40.9975 98.1782 40.9992C99.0855 40.989 99.9188 40.7398 100.587 39.9903C100.767 39.7387 100.767 39.7387 100.893 39.517C100.366 38.1276 99.0258 36.9231 98.0431 35.9556C97.7073 35.6071 97.3931 35.2341 97.0784 34.8605C96.679 34.3892 96.679 34.3892 96.1242 34.2964C95.9596 34.2958 95.795 34.2958 95.6304 34.2963C95.5406 34.2961 95.4508 34.2958 95.3583 34.2956C95.1629 34.2951 94.9676 34.2949 94.7722 34.2948C94.3568 34.2944 93.9415 34.2919 93.5262 34.2895C92.7524 34.285 91.9787 34.2813 91.2049 34.2815C90.6671 34.2816 90.1294 34.2789 89.5916 34.2742C89.3867 34.273 89.1818 34.2728 88.9769 34.2737C88.6898 34.2748 88.4029 34.2723 88.1159 34.269C87.9892 34.2708 87.9892 34.2708 87.8599 34.2727C87.2628 34.2603 86.9987 34.0997 86.5822 33.6013C86.405 33.1911 86.4312 32.7483 86.48 32.2998C86.7792 31.6534 86.7792 31.6534 87.0933 31.4716C87.301 31.4574 87.5091 31.4506 87.7171 31.4473C87.8481 31.445 87.979 31.4426 88.114 31.4402C88.2574 31.4382 88.4009 31.4362 88.5444 31.4342C88.6908 31.4318 88.8372 31.4293 88.9836 31.4267C89.3691 31.4202 89.7546 31.4144 90.1401 31.4087C90.5334 31.4027 90.9267 31.3961 91.32 31.3896C92.0918 31.3769 92.8637 31.3649 93.6356 31.3533C93.4559 31.1632 93.276 30.9733 93.0962 30.7834C93.0456 30.7299 92.995 30.6763 92.9429 30.6212C92.5821 30.2406 92.2147 29.8852 91.8275 29.5416C91.3031 29.0727 90.7872 28.5937 90.275 28.1071C88.8851 26.793 87.4297 25.5783 85.9689 24.3728C85.8463 24.2716 85.8463 24.2716 85.7212 24.1684C84.5419 23.1979 83.3458 22.263 82.1267 21.361C81.892 21.1872 81.658 21.0123 81.424 20.8372C79.2512 19.2209 77.0056 17.7283 74.7244 16.3274C74.5851 16.2418 74.5851 16.2418 74.443 16.1544C73.7556 15.7332 73.0653 15.3186 72.3733 14.9076C72.2695 14.8458 72.1657 14.7841 72.0588 14.7204C63.7472 9.79205 54.7607 6.31999 32.2 2.12966C32.0757 2.11891 32.0757 2.11891 31.9488 2.10794C28.3928 1.8052 24.8253 1.86814 21.2622 1.89303C21.296 1.81494 21.3297 1.73686 21.3644 1.6564C21.6586 1.58102 21.9466 1.52094 22.2441 1.46876C22.3355 1.45198 22.4269 1.4352 22.5211 1.41791C22.8232 1.36299 23.1256 1.30989 23.4281 1.25709C23.5833 1.22959 23.5833 1.22959 23.7416 1.20153C25.1545 0.952019 26.5684 0.728643 27.9897 0.554599C28.0605 0.545736 28.1313 0.536874 28.2043 0.527743C28.7518 0.46022 29.2999 0.405059 29.8489 0.354943C30.0153 0.339657 30.0153 0.339657 30.1852 0.324061C32.3992 0.127428 34.6056 0.0750156 36.8256 0.0806835Z" fill="white"/>
<path d="M139.162 0.110977C142.393 0.0194538 146.539 0.124048 149.078 2.80257C149.944 3.87301 150.206 5.09964 150.192 6.52208C149.996 9.78531 147.894 12.7564 146.037 15.0486C145.786 15.3598 145.54 15.676 145.296 15.9946C144.681 16.7871 144.037 17.5343 143.338 18.2278C143.113 18.4554 142.893 18.689 142.674 18.9243C142.056 19.5879 141.417 20.2116 140.76 20.8233C140.639 20.9384 140.518 21.0537 140.398 21.169C139.392 22.1282 138.358 23.0378 137.312 23.9363C137.101 24.1176 136.893 24.3007 136.685 24.4851C136.627 24.5357 136.57 24.5863 136.511 24.6384C136.364 24.7688 136.217 24.8996 136.07 25.0304C135.853 25.201 135.853 25.201 135.649 25.201C135.625 25.0914 135.625 25.0914 135.6 24.9796C135.422 24.2317 135.175 23.6191 134.831 22.953C134.797 23.4215 134.764 23.89 134.729 24.3728C134.695 24.3728 134.661 24.3728 134.627 24.3728C134.627 23.7871 134.627 23.2015 134.627 22.5981C134.154 22.5981 133.682 22.5981 133.196 22.5981C133.196 22.559 133.196 22.52 133.196 22.4797C133.567 22.4407 133.938 22.4017 134.32 22.3614C134.151 22.2052 133.983 22.0491 133.809 21.8882C133.891 21.7946 133.973 21.7011 134.057 21.6047C134.366 21.2519 134.674 20.8982 134.981 20.5443C135.114 20.3923 135.246 20.2405 135.379 20.0889C136.166 19.1895 136.913 18.288 137.591 17.2739C137.644 17.1978 137.696 17.1216 137.75 17.0431C139.03 15.1751 140.27 12.8891 140.185 10.4228C140.06 9.21591 139.602 8.36967 138.818 7.57212C134.78 4.13728 127.994 5.49169 123.35 6.31249C114.386 7.92994 105.614 11.0032 92.1533 16.8376C92.0796 16.8717 92.0059 16.9059 91.93 16.941C91.1888 17.2848 90.4504 17.6346 89.7168 17.9995C89.6029 18.0559 89.4889 18.1123 89.3716 18.1704C89.1632 18.2741 88.9554 18.3793 88.7483 18.4861C88.6126 18.5538 88.6126 18.5538 88.4741 18.623C88.3581 18.6824 88.3581 18.6824 88.2398 18.7431C87.8585 18.8591 87.5857 18.7492 87.2511 18.5268C87.1716 18.4623 87.0921 18.3978 87.0103 18.3313C86.9295 18.2665 86.8487 18.2017 86.7655 18.1349C86.705 18.085 86.6445 18.0352 86.5822 17.9838C86.6844 17.6288 86.6844 17.6288 87.011 17.4269C87.1591 17.351 87.3077 17.2765 87.4567 17.2032C87.5376 17.1622 87.6184 17.1213 87.7017 17.0791C87.9712 16.9431 88.2414 16.809 88.5117 16.6749C88.7018 16.5797 88.892 16.4843 89.0821 16.3889C89.6791 16.0901 90.2772 15.7943 90.8756 15.4992C90.9689 15.4531 91.0622 15.407 91.1583 15.3595C100.503 10.745 110.079 6.69288 139.162 0.110977Z" fill="white"/>
<path d="M87.5726 31.4534C87.6737 31.4524 87.7749 31.4514 87.8791 31.4503C88.0462 31.4496 88.0462 31.4496 88.2166 31.4488C88.3337 31.4479 88.4507 31.4469 88.5713 31.4459C88.9606 31.4429 89.3499 31.441 89.7391 31.4393C89.9388 31.4383 89.9388 31.4383 90.1425 31.4374C90.7028 31.4348 91.2632 31.4326 91.8235 31.4313C92.6233 31.4294 93.4231 31.4255 94.2229 31.4187C94.7867 31.4141 95.3505 31.4118 95.9143 31.4112C96.2501 31.4107 96.5858 31.4091 96.9216 31.4055C99.0297 31.3843 100.701 31.4891 102.319 33.2228C102.75 33.7456 103.031 34.3504 103.328 34.9802C103.622 35.5886 103.985 36.0704 104.403 36.5739C104.718 36.9671 105.004 37.3787 105.289 37.8015C105.337 37.8725 105.385 37.9435 105.434 38.0166C105.633 38.3139 105.824 38.6122 106.004 38.9254C106.005 38.844 106.005 38.7626 106.005 38.6787C106.007 37.8303 106.012 36.982 106.02 36.1337C106.023 35.8171 106.024 35.5007 106.024 35.1842C106.025 34.7289 106.03 34.2738 106.034 33.8185C106.034 33.6773 106.034 33.536 106.033 33.3904C106.05 32.2935 106.05 32.2935 106.354 31.8574C106.754 31.4523 106.996 31.4381 107.511 31.4458C107.828 31.4812 108.012 31.5896 108.253 31.8266C108.524 32.2705 108.474 32.7397 108.455 33.2582C108.449 33.4584 108.444 33.6586 108.439 33.8588C108.436 33.965 108.433 34.0712 108.43 34.1806C108.412 34.872 108.406 35.5637 108.398 36.2552C108.39 36.858 108.379 37.46 108.358 38.0624C108.244 41.5036 108.626 43.6704 110.542 46.3489C110.922 46.8854 111.231 47.4704 111.537 48.0652C111.64 48.2595 111.742 48.4538 111.844 48.648C112.366 49.6569 112.869 50.6774 113.364 51.7034C113.412 51.8003 113.459 51.8972 113.507 51.997C116.499 58.1512 118.907 64.6988 120.705 71.4471C120.731 71.5406 120.756 71.634 120.782 71.7303C120.894 72.1652 120.942 72.449 120.827 72.8817C120.771 72.7484 120.716 72.6151 120.658 72.4777C119.245 69.0659 119.245 69.0659 117.703 65.7307C117.542 65.3991 117.383 65.0656 117.225 64.7319C115.891 61.9293 114.444 59.23 112.911 56.5691C112.819 56.4098 112.819 56.4098 112.726 56.2473C112.002 54.9934 111.268 53.7512 110.502 52.5316C110.406 52.3774 110.406 52.3774 110.307 52.2202C109.542 51.0024 108.759 49.8037 107.947 48.6272C107.874 48.522 107.802 48.4168 107.728 48.3083C106.913 47.1244 106.081 45.9588 105.233 44.8067C105.133 44.6705 105.033 44.5342 104.933 44.3977C104.218 43.4213 103.487 42.4656 102.733 41.5284C102.69 41.5714 102.647 41.6144 102.602 41.6587C102.475 41.7846 102.348 41.9102 102.22 42.0354C102.095 42.1613 101.971 42.29 101.85 42.4227C100.812 43.5427 99.5261 43.8129 98.157 43.807C98.0389 43.8074 97.9208 43.8078 97.7991 43.8082C97.4106 43.8092 97.0221 43.8086 96.6335 43.8078C96.363 43.8079 96.0924 43.8082 95.8218 43.8085C95.2557 43.8089 94.6896 43.8083 94.1236 43.8072C93.4695 43.8059 92.8154 43.8063 92.1614 43.8076C91.531 43.8088 90.9006 43.8087 90.2702 43.808C90.0023 43.8078 89.7344 43.808 89.4666 43.8086C89.0929 43.8092 88.7193 43.8083 88.3457 43.807C88.2347 43.8074 88.1237 43.8079 88.0093 43.8084C87.9076 43.8077 87.8058 43.8071 87.701 43.8064C87.6128 43.8063 87.5245 43.8062 87.4336 43.8061C87.1703 43.7732 87.0091 43.7045 86.7867 43.5397C86.4942 43.0198 86.422 42.6171 86.48 42.0016C86.6527 41.5618 86.8445 41.3114 87.1956 41.0551C87.4282 41.0109 87.4282 41.0109 87.688 41.0111C87.7869 41.0103 87.8857 41.0095 87.9876 41.0087C88.0954 41.0096 88.2032 41.0105 88.3143 41.0115C88.4283 41.011 88.5424 41.0106 88.6599 41.0101C88.9078 41.0093 89.1557 41.0094 89.4036 41.0101C89.7964 41.0112 90.1891 41.01 90.5819 41.0082C91.558 41.004 92.5341 41.0031 93.5102 41.0034C94.3341 41.0037 95.158 41.002 95.9819 40.9977C96.368 40.9964 96.754 40.9979 97.1401 40.9993C97.3785 40.9983 97.6169 40.9971 97.8553 40.9957C97.9618 40.9969 98.0684 40.9981 98.1782 40.9992C99.0855 40.989 99.9188 40.7398 100.587 39.9903C100.767 39.7387 100.767 39.7387 100.893 39.517C100.366 38.1276 99.0258 36.9231 98.0431 35.9556C97.7073 35.6071 97.3931 35.2341 97.0784 34.8605C96.679 34.3892 96.679 34.3892 96.1242 34.2964C95.9596 34.2958 95.795 34.2958 95.6304 34.2963C95.5406 34.2961 95.4508 34.2958 95.3583 34.2956C95.1629 34.2951 94.9676 34.2949 94.7722 34.2948C94.3568 34.2944 93.9415 34.2919 93.5262 34.2895C92.7524 34.285 91.9787 34.2813 91.2049 34.2815C90.6671 34.2816 90.1294 34.2789 89.5916 34.2742C89.3867 34.273 89.1818 34.2728 88.9769 34.2737C88.6898 34.2749 88.4029 34.2723 88.1159 34.269C87.9892 34.2708 87.9892 34.2708 87.8599 34.2727C87.2628 34.2603 86.9987 34.0997 86.5822 33.6013C86.405 33.1911 86.4312 32.7483 86.48 32.2998C86.7808 31.6499 86.9501 31.4581 87.5726 31.4534Z" fill="white"/>
<path d="M133.451 22.7829C134.02 23.1813 134.426 23.7592 134.627 24.4911C134.709 25.4191 134.739 26.3358 134.218 27.094C133.763 27.6506 133.329 28.0003 132.657 28.0803C131.811 28.0911 131.194 28.0616 130.564 27.3722C129.958 26.6033 129.877 25.9274 129.893 24.8992C129.953 24.1253 130.195 23.6628 130.685 23.1453C131.422 22.436 132.58 22.3285 133.451 22.7829Z" fill="#EAB962"/>
<path d="M96.4978 34.1929C96.9364 34.1755 97.375 34.1651 97.8139 34.1559C97.937 34.1509 98.06 34.146 98.1868 34.1409C99.1459 34.1258 99.8096 34.3252 100.548 35.046C101.366 36.1739 101.514 36.9693 101.404 38.4522C101.33 38.7733 101.244 38.9922 101.098 39.2804C100.73 39.1042 100.531 38.8665 100.274 38.5187C99.5792 37.6039 98.8437 36.7453 98.0431 35.9551C97.576 35.4713 97.1419 34.9462 96.7022 34.4295C96.6347 34.3514 96.5673 34.2733 96.4978 34.1929Z" fill="white"/>
<path d="M133.244 22.6757C133.853 22.9911 134.259 23.5468 134.569 24.2175C134.635 24.5299 134.619 24.665 134.524 24.9643C134.372 25.1358 134.372 25.1358 134.186 25.2823C134.125 25.3316 134.064 25.3808 134.002 25.4316C133.558 25.7177 133.079 25.7249 132.582 25.6742C132.327 25.5559 132.327 25.5559 132.173 25.4376C132.173 25.3595 132.173 25.2814 132.173 25.201C132.005 25.201 131.836 25.201 131.662 25.201C131.628 24.9667 131.595 24.7324 131.56 24.4911C131.495 24.513 131.429 24.535 131.362 24.5576C131.292 24.5747 131.223 24.5918 131.151 24.6094C131.049 24.4911 131.049 24.4911 131.035 24.229C131.036 24.1227 131.036 24.0164 131.036 23.9069C131.036 23.8009 131.036 23.6949 131.035 23.5857C131.049 23.3079 131.049 23.3079 131.151 23.0713C131.084 23.0323 131.016 22.9932 130.947 22.953C131.663 22.4779 132.445 22.4307 133.244 22.6757Z" fill="#FFE7A2"/>
<path d="M27.9111 31.7841C28.0096 31.848 28.1082 31.912 28.2098 31.9779C28.3121 32.0451 28.4145 32.1123 28.52 32.1815C28.7225 32.3117 28.9251 32.4417 29.1277 32.5716C30.1377 33.2239 31.1459 33.8785 32.1408 34.5613C33.4886 35.4859 34.8495 36.3852 36.2098 37.2848C36.271 37.3252 36.3321 37.3656 36.3951 37.4073C36.6995 37.6085 37.0041 37.8096 37.3089 38.0102C37.8511 38.3676 38.3917 38.7271 38.9275 39.0974C39.0169 39.1588 39.1063 39.2202 39.1985 39.2835C39.3615 39.3959 39.5239 39.5093 39.6858 39.6239C40.1993 39.9895 40.1993 39.9895 40.7867 39.9903C41.0253 39.5759 41.0167 39.41 41.0172 38.9202C41.0179 38.7729 41.0186 38.6256 41.0194 38.4738C41.0193 38.3952 41.0192 38.3165 41.0192 38.2355C41.0191 37.9887 41.0204 37.7421 41.0221 37.4954C41.0268 36.794 41.0294 36.0926 41.03 35.3913C41.0306 34.962 41.033 34.5328 41.0367 34.1035C41.0377 33.9402 41.038 33.7769 41.0374 33.6136C41.0367 33.3849 41.0387 33.1561 41.0408 32.9273C41.0411 32.7973 41.0414 32.6672 41.0417 32.5332C41.1066 32.0916 41.227 31.9016 41.5022 31.59C41.8951 31.3631 42.2165 31.3234 42.6528 31.3225C42.7816 31.3216 42.9104 31.3208 43.0432 31.3199C43.1852 31.3202 43.3272 31.3205 43.4692 31.3208C43.6193 31.3203 43.7695 31.3197 43.9196 31.319C44.3268 31.3174 44.734 31.3173 45.1412 31.3176C45.4814 31.3178 45.8215 31.3172 46.1616 31.3166C46.9642 31.3153 47.7668 31.3153 48.5693 31.316C49.3968 31.3167 50.2243 31.3152 51.0518 31.3127C51.7627 31.3106 52.4736 31.3099 53.1846 31.3103C53.609 31.3105 54.0334 31.3102 54.4578 31.3086C54.8569 31.3071 55.256 31.3073 55.6552 31.3088C55.8014 31.3091 55.9477 31.3088 56.094 31.3078C56.2941 31.3066 56.4942 31.3078 56.6942 31.309C56.862 31.309 56.862 31.309 57.0332 31.309C57.4758 31.3716 57.8187 31.556 58.1453 31.9079C58.3221 32.3065 58.3932 32.6842 58.3689 33.128C58.2495 33.5263 58.0878 33.8595 57.7757 34.0958C57.5021 34.214 57.2846 34.2225 56.9924 34.2226C56.8789 34.2233 56.7654 34.2239 56.6485 34.2246C56.5244 34.2241 56.4004 34.2236 56.2725 34.2231C56.0714 34.2237 55.8703 34.2244 55.6692 34.2251C55.4533 34.2256 55.2374 34.2255 55.0215 34.2253C54.5713 34.225 54.1212 34.2267 53.671 34.2288C52.3911 34.2343 51.1111 34.2372 49.8311 34.2379C49.124 34.2384 48.4169 34.2405 47.7098 34.2444C47.2623 34.2468 46.8148 34.2471 46.3673 34.2458C46.0236 34.2455 45.68 34.2481 45.3364 34.2504C45.1503 34.2489 45.1503 34.2489 44.9604 34.2474C44.8469 34.2487 44.7334 34.25 44.6165 34.2514C44.4686 34.2516 44.4686 34.2516 44.3177 34.2518C43.9807 34.3288 43.8606 34.4774 43.6489 34.7844C43.5297 35.2166 43.5143 35.41 43.6744 35.8271C43.8417 36.1171 43.8417 36.1171 44.16 36.2042C44.3871 36.2158 44.6146 36.2202 44.8419 36.221C44.9452 36.2216 44.9452 36.2216 45.0506 36.2222C45.2 36.2231 45.3494 36.2237 45.4989 36.2242C45.7357 36.225 45.9724 36.2269 46.2092 36.2291C46.8825 36.2353 47.5557 36.2409 48.2289 36.2428C48.6409 36.244 49.0528 36.2474 49.4648 36.2524C49.6215 36.2539 49.7782 36.2545 49.9349 36.2542C50.1546 36.2539 50.3742 36.2565 50.5939 36.2598C50.7812 36.2609 50.7812 36.2609 50.9722 36.2619C51.3826 36.3344 51.6067 36.4982 51.9289 36.7958C52.0922 37.1739 52.0687 37.5676 52.0311 37.9789C51.8478 38.4814 51.6316 38.6874 51.2133 38.9254C50.883 38.9694 50.883 38.9694 50.5049 38.9691C50.4357 38.9695 50.3665 38.97 50.2952 38.9704C50.1457 38.9712 49.9961 38.9712 49.8466 38.9704C49.6098 38.9693 49.3731 38.9706 49.1364 38.9724C48.4635 38.9771 47.7906 38.9773 47.1177 38.977C46.7055 38.977 46.2934 38.9793 45.8812 38.9828C45.6481 38.9841 45.4151 38.9827 45.182 38.9812C45.039 38.9823 44.896 38.9835 44.7529 38.9848C44.6283 38.9848 44.5036 38.9848 44.3752 38.9847C43.9969 39.0551 43.8793 39.1699 43.6489 39.517C43.5393 39.8702 43.5371 40.0607 43.6106 40.4266C43.7989 40.7932 43.9065 40.8195 44.2622 40.9368C44.6146 40.9711 44.9657 40.9691 45.3191 40.9674C45.4254 40.9678 45.5316 40.9682 45.6411 40.9687C45.9924 40.9697 46.3436 40.969 46.6948 40.9682C46.9394 40.9684 47.184 40.9686 47.4285 40.9689C47.9414 40.9693 48.4542 40.9687 48.967 40.9676C49.623 40.9663 50.2789 40.9671 50.9348 40.9685C51.4401 40.9693 51.9454 40.9691 52.4507 40.9685C52.6925 40.9683 52.9343 40.9685 53.176 40.969C53.5148 40.9696 53.8536 40.9687 54.1924 40.9674C54.2916 40.9679 54.3907 40.9684 54.4928 40.9689C55.3995 40.9624 56.1385 40.799 56.9378 40.2861C57.0357 40.2236 57.0357 40.2236 57.1357 40.1599C57.762 39.7575 58.3783 39.3348 58.9942 38.9116C59.5816 38.5088 60.1731 38.1145 60.7647 37.7201C60.8778 37.6447 60.9909 37.5693 61.1074 37.4915C61.3396 37.3367 61.5718 37.1819 61.8041 37.0272C62.3629 36.6546 62.9214 36.2815 63.48 35.9084C64.1467 35.4631 64.8135 35.0179 65.4805 34.5732C65.7039 34.4243 65.9272 34.2753 66.1506 34.1263C66.3132 34.0179 66.3132 34.0179 66.4792 33.9072C67.0434 33.5306 67.6065 33.1521 68.1682 32.7708C68.2811 32.6942 68.3939 32.6177 68.5102 32.5388C68.7256 32.3925 68.9409 32.2459 69.156 32.099C69.252 32.0338 69.3479 31.9686 69.4468 31.9015C69.5311 31.844 69.6153 31.7865 69.7022 31.7273C70.2554 31.3785 70.8391 31.4038 71.4533 31.4716C71.9663 31.7579 72.3222 32.1814 72.5778 32.7731C72.59 33.0906 72.596 33.4051 72.5975 33.7227C72.5983 33.8209 72.5992 33.919 72.6 34.0201C72.6026 34.3458 72.6043 34.6714 72.6057 34.997C72.6063 35.1082 72.6068 35.2193 72.6074 35.3339C72.6101 35.9223 72.6121 36.5107 72.6136 37.0992C72.6153 37.7069 72.6198 38.3145 72.625 38.9221C72.6285 39.3894 72.6297 39.8567 72.6302 40.324C72.6309 40.548 72.6325 40.772 72.6349 40.9959C72.6382 41.3098 72.6382 41.6234 72.6374 41.9373C72.6391 42.0295 72.6408 42.1217 72.6425 42.2167C72.6378 42.6939 72.5944 42.9819 72.3313 43.3589C71.9452 43.7953 71.703 43.8228 71.1802 43.8189C70.7797 43.7473 70.6045 43.5197 70.3289 43.1848C70.1893 42.8617 70.2116 42.6024 70.2089 42.2408C70.2075 42.0923 70.2062 41.9439 70.2047 41.7909C70.2042 41.7114 70.2037 41.6319 70.2032 41.5499C70.2015 41.3013 70.1991 41.0528 70.1965 40.8042C70.1893 40.0974 70.1831 39.3906 70.1779 38.6838C70.1747 38.2516 70.1705 37.8194 70.1656 37.3873C70.164 37.2224 70.1627 37.0574 70.1619 36.8925C70.1606 36.6622 70.1581 36.432 70.1554 36.2017C70.1544 36.0705 70.1533 35.9393 70.1522 35.8042C70.1512 35.4756 70.1512 35.4756 69.92 35.2577C69.3895 35.2846 69.0052 35.5475 68.5656 35.8641C68.4106 35.9725 68.2555 36.0808 68.1004 36.189C67.9733 36.2779 67.9733 36.2779 67.8438 36.3687C67.3321 36.7232 66.8145 37.0656 66.2975 37.4095C66.0676 37.5628 65.8378 37.7161 65.6079 37.8694C65.4925 37.9463 65.3771 38.0232 65.2582 38.1025C64.8094 38.4017 64.3608 38.7012 63.9122 39.0008C63.6922 39.1478 63.4721 39.2947 63.252 39.4416C62.6878 39.8182 62.1238 40.1953 61.5601 40.5731C60.906 41.0113 60.2512 41.4482 59.5956 41.8833C59.5037 41.9443 59.4119 42.0052 59.3172 42.0681C57.5104 43.263 57.5104 43.263 56.7333 43.5397C56.5648 43.5998 56.5648 43.5998 56.3928 43.6612C55.7953 43.8315 55.1955 43.8112 54.5835 43.8107C54.4516 43.8115 54.3196 43.8123 54.1837 43.8131C53.8236 43.8152 53.4634 43.8158 53.1032 43.8159C52.8773 43.8161 52.6514 43.8166 52.4255 43.8172C51.6348 43.8194 50.8441 43.8204 50.0533 43.8202C49.3207 43.82 48.588 43.8225 47.8553 43.8263C47.223 43.8294 46.5908 43.8306 45.9585 43.8305C45.5823 43.8304 45.2062 43.8311 44.83 43.8336C42.8093 43.8463 40.999 43.8111 39.1918 42.6463C39.1204 42.6005 39.0489 42.5546 38.9753 42.5074C38.8984 42.4576 38.8215 42.4078 38.7422 42.3566C38.6561 42.3014 38.5699 42.2463 38.4812 42.1895C37.2742 41.4158 36.082 40.6127 34.8915 39.8058C34.1037 39.2723 33.3123 38.7462 32.5194 38.223C31.5999 37.616 30.6809 37.0079 29.7638 36.3961C29.5906 36.2806 29.4174 36.1653 29.2442 36.0499C29.14 35.9803 29.0358 35.9108 28.9285 35.8391C28.837 35.778 28.7454 35.717 28.6511 35.6541C28.4677 35.5285 28.2885 35.3945 28.1111 35.2577C27.8513 35.2182 27.8513 35.2182 27.6 35.2577C27.3687 35.4751 27.3687 35.4751 27.3705 35.801C27.3707 35.9307 27.3709 36.0605 27.3711 36.1942C27.3705 36.4145 27.3705 36.4145 27.3699 36.6394C27.3702 36.7181 27.3704 36.7969 27.3706 36.8781C27.3712 37.1248 27.3703 37.3715 27.3689 37.6182C27.3651 38.3198 27.3632 39.0214 27.3643 39.723C27.3649 40.1521 27.3631 40.5812 27.3596 41.0103C27.3588 41.1735 27.359 41.3367 27.3601 41.4999C27.3693 42.9381 27.3693 42.9381 27.0465 43.4014C26.651 43.7855 26.4001 43.8226 25.8958 43.8189C25.4952 43.7473 25.3201 43.5197 25.0444 43.1848C24.8841 42.8136 24.9263 42.4169 24.9257 42.0094C24.925 41.8639 24.925 41.8639 24.9242 41.7155C24.9227 41.3937 24.922 41.0719 24.9215 40.7501C24.9209 40.5266 24.9203 40.3032 24.9197 40.0798C24.9186 39.6107 24.918 39.1416 24.9177 38.6726C24.9171 38.0721 24.9146 37.4716 24.9117 36.8712C24.9098 36.4093 24.9093 35.9475 24.9091 35.4857C24.9088 35.2643 24.908 35.043 24.9067 34.8217C24.9049 34.5116 24.9051 34.2015 24.9058 33.8914C24.9048 33.8003 24.9039 33.7092 24.9029 33.6153C24.9067 33.048 24.9888 32.6627 25.2489 32.1815C26.0775 31.2438 26.9176 31.1332 27.9111 31.7841Z" fill="white"/>
<path d="M137.298 31.3367C137.427 31.336 137.556 31.3354 137.688 31.3347C137.831 31.3345 137.973 31.3344 138.115 31.3343C138.265 31.3337 138.416 31.3331 138.566 31.3325C138.973 31.3309 139.381 31.3302 139.789 31.3296C140.043 31.3293 140.298 31.3288 140.553 31.3283C141.35 31.3267 142.147 31.3255 142.944 31.3251C143.864 31.3245 144.784 31.3225 145.704 31.319C146.415 31.3165 147.127 31.3153 147.838 31.3151C148.263 31.315 148.688 31.3143 149.112 31.3122C149.512 31.3102 149.911 31.31 150.311 31.311C150.458 31.3111 150.604 31.3106 150.75 31.3094C150.951 31.3079 151.151 31.3088 151.351 31.3098C151.463 31.3097 151.575 31.3095 151.691 31.3093C152.157 31.3747 152.503 31.5526 152.809 31.9671C153.004 32.5303 153.007 33.0194 152.803 33.5791C152.52 33.9751 152.25 34.1708 151.806 34.2392C151.695 34.2402 151.584 34.2412 151.47 34.2421C151.281 34.2451 151.281 34.2451 151.088 34.2481C150.951 34.2485 150.814 34.2489 150.678 34.2493C150.537 34.2509 150.396 34.2528 150.255 34.2548C149.885 34.2598 149.515 34.2627 149.146 34.2652C148.553 34.2694 147.96 34.2766 147.367 34.2839C147.16 34.2862 146.952 34.2876 146.745 34.2888C146.62 34.2901 146.495 34.2913 146.366 34.2925C146.255 34.2933 146.145 34.2941 146.031 34.2949C145.77 34.2909 145.77 34.2909 145.564 34.4295C145.557 35.3182 145.551 36.2069 145.548 37.0956C145.546 37.3981 145.544 37.7007 145.541 38.0032C145.538 38.4373 145.536 38.8713 145.534 39.3053C145.533 39.4413 145.531 39.5772 145.53 39.7173C145.53 39.8428 145.53 39.9683 145.53 40.0977C145.529 40.2085 145.528 40.3194 145.528 40.4337C145.54 40.5216 145.552 40.6095 145.564 40.7002C145.876 40.9406 145.941 40.9693 146.293 40.9664C146.401 40.9673 146.401 40.9673 146.511 40.9682C147.334 40.876 147.969 40.5851 148.682 40.1086C148.772 40.0503 148.861 39.992 148.953 39.9319C149.644 39.4788 150.329 39.0134 151.012 38.5442C151.594 38.1457 152.179 37.7556 152.765 37.3652C152.878 37.2898 152.991 37.2144 153.107 37.1368C153.455 36.9047 153.803 36.6728 154.151 36.4408C154.598 36.1427 155.046 35.8445 155.493 35.5461C155.657 35.4363 155.657 35.4363 155.825 35.3243C156.574 34.8241 157.321 34.3207 158.067 33.8157C158.867 33.2754 159.667 32.7372 160.47 32.2037C160.56 32.1434 160.65 32.083 160.744 32.0208C160.827 31.9657 160.91 31.9106 160.996 31.8539C161.068 31.8055 161.141 31.7572 161.216 31.7074C161.761 31.3754 162.342 31.4081 162.942 31.4716C163.51 31.7585 163.805 32.2588 164.067 32.8914C164.133 33.234 164.137 33.5606 164.133 33.9108C164.134 34.0564 164.134 34.0564 164.136 34.205C164.138 34.523 164.136 34.8408 164.135 35.1588C164.135 35.3812 164.135 35.6036 164.136 35.8261C164.137 36.2909 164.136 36.7557 164.133 37.2205C164.13 37.8155 164.132 38.4102 164.135 39.0052C164.137 39.464 164.136 39.9227 164.135 40.3815C164.135 40.6009 164.135 40.8202 164.136 41.0395C164.138 41.3463 164.136 41.6527 164.133 41.9594C164.134 42.0494 164.135 42.1394 164.136 42.2321C164.124 42.9167 163.962 43.1959 163.556 43.658C163.199 43.8642 162.82 43.8458 162.431 43.7763C162.117 43.5749 161.878 43.3253 161.716 42.9481C161.705 42.7169 161.701 42.4851 161.699 42.2535C161.698 42.1078 161.697 41.9621 161.696 41.812C161.696 41.734 161.696 41.6559 161.695 41.5755C161.694 41.3313 161.692 41.0872 161.69 40.843C161.683 40.1489 161.678 39.4547 161.675 38.7605C161.672 38.336 161.669 37.9115 161.664 37.487C161.663 37.3251 161.662 37.1633 161.662 37.0014C161.661 36.7751 161.659 36.5488 161.656 36.3226C161.655 36.1937 161.654 36.0649 161.653 35.9322C161.635 35.6105 161.635 35.6105 161.472 35.3898C161.307 35.2291 161.307 35.2291 161.066 35.2736C160.769 35.386 160.527 35.5304 160.258 35.7134C160.153 35.7839 160.049 35.8545 159.941 35.9271C159.829 36.0039 159.716 36.0807 159.601 36.1598C159.482 36.2403 159.363 36.3206 159.244 36.4009C158.998 36.5676 158.751 36.7348 158.505 36.9022C157.941 37.2845 157.375 37.661 156.809 38.0381C156.587 38.186 156.366 38.3338 156.144 38.4818C155.701 38.7776 155.259 39.0733 154.816 39.3691C154.706 39.4424 154.596 39.5157 154.483 39.5912C154.262 39.7385 154.042 39.8857 153.821 40.0328C153.254 40.4112 152.687 40.7909 152.122 41.173C148.248 43.786 148.248 43.786 146.261 43.8281C146.176 43.8308 146.091 43.8334 146.003 43.8362C145.129 43.8322 144.419 43.4702 143.776 42.7878C143.272 42.1497 143.1 41.4833 143.093 40.6354C143.092 40.504 143.091 40.3725 143.089 40.237C143.088 40.025 143.088 40.025 143.086 39.8086C143.083 39.5099 143.079 39.2111 143.076 38.9123C143.071 38.4407 143.066 37.9692 143.062 37.4977C143.058 37.0429 143.053 36.5882 143.048 36.1335C143.047 35.9919 143.046 35.8503 143.045 35.7044C143.043 35.5733 143.042 35.4422 143.04 35.3071C143.038 35.1339 143.038 35.1339 143.037 34.9572C143.026 34.6361 143.026 34.6361 142.804 34.3112C142.532 34.2579 142.532 34.2579 142.209 34.2675C142.084 34.2667 141.959 34.2659 141.831 34.2651C141.764 34.2654 141.697 34.2658 141.628 34.2662C141.418 34.2673 141.208 34.2661 140.999 34.2642C140.402 34.2595 139.806 34.2594 139.209 34.2596C138.845 34.2596 138.48 34.2574 138.115 34.2538C137.909 34.2525 137.703 34.2539 137.497 34.2554C136.335 34.2445 136.335 34.2445 135.853 33.7196C135.618 33.3734 135.594 32.9847 135.603 32.5485C135.688 32.0894 135.949 31.7583 136.262 31.4716C136.608 31.338 136.936 31.3378 137.298 31.3367Z" fill="white"/>
<path d="M117.673 31.3358C117.844 31.3369 118.015 31.3379 118.186 31.3388C118.635 31.3416 119.085 31.3459 119.534 31.3506C119.886 31.3542 120.239 31.3568 120.592 31.3595C121.541 31.3669 122.489 31.3779 123.438 31.3909C123.79 31.3957 124.143 31.3997 124.495 31.4032C124.931 31.4076 125.367 31.4131 125.803 31.4194C125.966 31.4215 126.13 31.4233 126.293 31.4247C126.518 31.4267 126.743 31.4301 126.968 31.4339C127.095 31.4355 127.223 31.4371 127.354 31.4387C127.66 31.4701 127.831 31.5134 128.084 31.7083C128.385 32.1306 128.44 32.4881 128.42 33.0185C128.362 33.4756 128.188 33.7377 127.888 34.0288C127.412 34.2772 126.958 34.2409 126.441 34.2365C126.327 34.237 126.213 34.2374 126.095 34.2379C125.847 34.2386 125.599 34.2386 125.351 34.2378C124.959 34.2368 124.566 34.238 124.173 34.2398C123.197 34.244 122.222 34.2448 121.246 34.2445C120.422 34.2443 119.597 34.246 118.773 34.2503C118.387 34.2515 118.001 34.2501 117.615 34.2486C117.377 34.2497 117.138 34.2509 116.9 34.2522C116.794 34.2511 116.687 34.2499 116.577 34.2487C115.604 34.2597 114.865 34.6072 114.154 35.3793C113.601 36.1106 113.439 37.0247 113.467 37.9789C113.577 38.811 113.864 39.5181 114.387 40.1086C115.202 40.7951 116.07 40.9731 117.055 40.9674C117.189 40.968 117.189 40.968 117.326 40.9687C117.618 40.9697 117.91 40.969 118.202 40.9682C118.407 40.9684 118.611 40.9686 118.815 40.9689C119.241 40.9693 119.668 40.9688 120.094 40.9676C120.641 40.9663 121.188 40.9671 121.735 40.9685C122.156 40.9693 122.576 40.9691 122.997 40.9685C123.199 40.9683 123.401 40.9685 123.602 40.969C123.884 40.9696 124.165 40.9687 124.446 40.9674C124.53 40.9679 124.613 40.9684 124.699 40.9689C125.249 40.9686 125.249 40.9686 125.733 40.7002C125.894 40.3294 125.923 39.9156 125.836 39.517C125.453 39.0824 125.206 38.9849 124.676 38.9867C124.547 38.9859 124.418 38.9851 124.285 38.9842C124.216 38.9849 124.148 38.9856 124.078 38.9863C123.862 38.9883 123.647 38.9874 123.432 38.9858C122.897 38.9823 122.362 38.9838 121.827 38.9852C121.375 38.9862 120.923 38.9852 120.47 38.9818C120.259 38.9809 120.048 38.9829 119.836 38.985C118.637 38.9775 118.637 38.9775 118.169 38.4522C117.991 38.0396 118.007 37.6008 118.067 37.1507C118.262 36.7276 118.485 36.4766 118.884 36.3225C119.097 36.3108 119.311 36.3062 119.524 36.3053C119.656 36.3046 119.788 36.3038 119.924 36.3031C120.069 36.3029 120.213 36.3027 120.358 36.3027C120.507 36.3023 120.655 36.3019 120.804 36.3015C121.116 36.3008 121.428 36.3005 121.74 36.3006C122.137 36.3006 122.535 36.299 122.932 36.297C123.24 36.2956 123.547 36.2954 123.854 36.2955C124.001 36.2953 124.147 36.2948 124.294 36.2939C125.491 36.2871 126.536 36.3107 127.471 37.269C128.254 38.3519 128.372 39.4493 128.308 40.8173C128.23 41.775 127.78 42.5612 127.164 43.1848C126.64 43.5762 126.123 43.7896 125.498 43.7938C125.411 43.7946 125.323 43.7954 125.233 43.7963C125.139 43.7966 125.044 43.797 124.946 43.7973C124.795 43.7984 124.795 43.7984 124.641 43.7996C124.308 43.802 123.975 43.8034 123.641 43.8045C123.527 43.805 123.413 43.8055 123.296 43.806C122.691 43.8085 122.086 43.8102 121.482 43.8113C120.859 43.8126 120.237 43.8166 119.615 43.8213C119.135 43.8244 118.655 43.8254 118.174 43.8258C117.945 43.8264 117.716 43.8278 117.487 43.83C115.581 43.8472 114.039 43.6639 112.572 42.0904C111.365 40.5823 111.018 38.915 111.077 36.9109C111.16 35.3012 111.876 33.8903 112.876 32.7897C113.222 32.4814 113.578 32.242 113.965 32.0115C114.03 31.9724 114.095 31.9333 114.162 31.893C115.272 31.2756 116.47 31.3218 117.673 31.3358Z" fill="white"/>
<path d="M87.5726 31.4534C87.6737 31.4524 87.7749 31.4514 87.8791 31.4503C88.0462 31.4496 88.0462 31.4496 88.2166 31.4488C88.3337 31.4479 88.4507 31.4469 88.5713 31.4459C88.9606 31.4429 89.3499 31.441 89.7391 31.4393C89.9388 31.4383 89.9388 31.4383 90.1425 31.4374C90.7028 31.4348 91.2632 31.4326 91.8235 31.4313C92.6233 31.4294 93.4231 31.4255 94.2229 31.4187C94.7867 31.4141 95.3505 31.4118 95.9143 31.4112C96.2501 31.4107 96.5858 31.4091 96.9216 31.4055C99.0239 31.3844 100.723 31.481 102.326 33.2353C103.392 34.5437 103.826 36.1522 103.784 37.9272C103.662 39.6713 103.029 41.2341 101.926 42.4259C100.787 43.4519 99.5793 43.8131 98.157 43.807C98.0389 43.8074 97.9208 43.8078 97.7991 43.8082C97.4106 43.8093 97.0221 43.8086 96.6335 43.8078C96.363 43.8079 96.0924 43.8082 95.8218 43.8085C95.2557 43.8089 94.6896 43.8083 94.1236 43.8072C93.4695 43.8059 92.8154 43.8063 92.1614 43.8076C91.531 43.8088 90.9006 43.8087 90.2702 43.808C90.0023 43.8078 89.7344 43.808 89.4666 43.8086C89.0929 43.8092 88.7193 43.8083 88.3457 43.807C88.2347 43.8074 88.1237 43.8079 88.0093 43.8084C87.9076 43.8077 87.8058 43.8071 87.701 43.8064C87.6128 43.8063 87.5245 43.8062 87.4336 43.8061C87.1703 43.7732 87.0091 43.7045 86.7867 43.5397C86.4942 43.0198 86.422 42.6171 86.48 42.0016C86.6527 41.5618 86.8445 41.3114 87.1956 41.0551C87.4282 41.0109 87.4282 41.0109 87.688 41.0111C87.7869 41.0103 87.8857 41.0095 87.9876 41.0087C88.0954 41.0096 88.2032 41.0105 88.3143 41.0115C88.4283 41.011 88.5424 41.0106 88.6599 41.0101C88.9078 41.0093 89.1557 41.0094 89.4036 41.0101C89.7964 41.0112 90.1891 41.01 90.5819 41.0082C91.558 41.004 92.5341 41.0031 93.5102 41.0034C94.3341 41.0037 95.158 41.002 95.9819 40.9977C96.368 40.9964 96.754 40.9979 97.1401 40.9993C97.3785 40.9983 97.6169 40.9971 97.8553 40.9957C97.9618 40.9969 98.0684 40.9981 98.1782 40.9992C99.0855 40.989 99.9188 40.7398 100.587 39.9903C100.767 39.7387 100.767 39.7387 100.893 39.517C100.366 38.1276 99.0258 36.9231 98.0431 35.9556C97.7073 35.6071 97.3931 35.2341 97.0784 34.8605C96.679 34.3892 96.679 34.3892 96.1242 34.2964C95.9596 34.2958 95.795 34.2958 95.6304 34.2963C95.5406 34.2961 95.4508 34.2958 95.3583 34.2956C95.1629 34.2951 94.9676 34.2949 94.7722 34.2948C94.3568 34.2944 93.9415 34.2919 93.5262 34.2895C92.7524 34.285 91.9787 34.2813 91.2049 34.2815C90.6671 34.2816 90.1294 34.2789 89.5916 34.2742C89.3867 34.273 89.1818 34.2728 88.9769 34.2737C88.6898 34.2749 88.4029 34.2723 88.1159 34.269C87.9892 34.2708 87.9892 34.2708 87.8599 34.2727C87.2628 34.2603 86.9987 34.0997 86.5822 33.6013C86.405 33.1911 86.4312 32.7483 86.48 32.2998C86.7808 31.6499 86.9501 31.4581 87.5726 31.4534Z" fill="white"/>
<path d="M168.648 31.0592C168.916 31.3307 169.067 31.534 169.217 31.927C169.227 32.1788 169.23 32.431 169.231 32.6831C169.231 32.842 169.232 33.0009 169.233 33.1646C169.233 33.2498 169.233 33.3351 169.233 33.4228C169.234 33.6897 169.235 33.9566 169.237 34.2234C169.242 34.9822 169.247 35.741 169.248 36.4999C169.249 36.964 169.252 37.4281 169.256 37.8922C169.257 38.0687 169.257 38.2453 169.257 38.4218C169.257 38.6696 169.259 38.9173 169.262 39.165C169.263 39.3761 169.263 39.3761 169.263 39.5915C169.324 40.0842 169.446 40.3484 169.691 40.7291C170.031 40.9516 170.306 41.008 170.683 41.0082C170.838 41.0092 170.838 41.0092 170.995 41.0102C171.107 41.0097 171.219 41.0092 171.334 41.0087C171.453 41.0091 171.572 41.0096 171.694 41.01C171.951 41.0109 172.209 41.0113 172.466 41.011C172.873 41.0107 173.28 41.0125 173.688 41.0146C174.845 41.0204 176.003 41.0234 177.161 41.0242C177.801 41.0247 178.44 41.0269 179.08 41.0311C179.485 41.0336 179.89 41.0339 180.294 41.0325C180.605 41.0321 180.916 41.0349 181.227 41.0372C181.339 41.0362 181.451 41.0352 181.566 41.0342C182.323 41.0442 182.323 41.0442 182.7 41.3374C183.02 41.8258 183.001 42.2473 182.999 42.8729C182.965 43.2085 182.965 43.2085 182.74 43.5959C182.389 43.9236 182.222 43.9681 181.795 43.9698C181.634 43.9708 181.634 43.9708 181.47 43.9719C181.351 43.972 181.233 43.9722 181.111 43.9723C180.987 43.9729 180.863 43.9736 180.734 43.9742C180.393 43.9758 180.051 43.9766 179.709 43.9772C179.496 43.9775 179.282 43.978 179.068 43.9786C178.399 43.9803 177.73 43.9815 177.061 43.982C176.29 43.9825 175.519 43.9847 174.747 43.9883C174.151 43.991 173.554 43.9922 172.957 43.9924C172.601 43.9925 172.245 43.9932 171.889 43.9955C171.554 43.9975 171.218 43.9978 170.883 43.9967C170.702 43.9965 170.521 43.9982 170.341 44C169.327 43.9936 168.444 43.7981 167.7 42.8366C167.189 41.9998 167.013 41.1257 167.01 40.0576C167.01 39.9702 167.009 39.8828 167.009 39.7927C167.008 39.5066 167.008 39.2205 167.008 38.9344C167.008 38.7342 167.007 38.534 167.007 38.3338C167.006 37.9156 167.006 37.4973 167.007 37.079C167.007 36.5436 167.006 36.0083 167.003 35.4729C167.002 35.06 167.002 34.6472 167.002 34.2343C167.002 34.0369 167.002 33.8395 167.001 33.6421C166.999 33.3661 167 33.0903 167.001 32.8144C167.001 32.6576 167.001 32.5008 167.001 32.3393C167.039 31.8949 167.118 31.6626 167.321 31.3072C167.719 30.951 168.184 30.9601 168.648 31.0592Z" fill="white"/>
<path d="M3.576 31.0393C3.91691 31.3054 4.0952 31.5531 4.23926 32.0325C4.26373 32.3944 4.26373 32.3944 4.26496 32.8198C4.26592 32.9793 4.26689 33.1388 4.26788 33.3032C4.26801 33.4306 4.26801 33.4306 4.26815 33.5605C4.2685 33.8272 4.27009 34.0939 4.27201 34.3606C4.27725 35.1187 4.28017 35.8768 4.28249 36.6349C4.284 37.0992 4.28686 37.5634 4.29052 38.0276C4.29162 38.2042 4.29219 38.3808 4.2922 38.5573C4.29221 38.8045 4.29409 39.0517 4.29605 39.2989C4.29653 39.4394 4.29701 39.5798 4.2975 39.7246C4.33899 40.1538 4.41637 40.3825 4.61826 40.723C4.91876 40.9727 5.15434 41.0022 5.50663 41.0017C5.60997 41.0022 5.71331 41.0027 5.81979 41.0032C5.93271 41.0025 6.04563 41.0018 6.16197 41.001C6.34508 41.0014 6.52818 41.0018 6.71128 41.0022C6.90789 41.0024 7.1045 41.0021 7.30111 41.0016C7.71126 41.0006 8.12138 41.0019 8.53152 41.0037C9.69772 41.0084 10.8639 41.0107 12.0301 41.0092C12.6744 41.0084 13.3186 41.0099 13.9629 41.0137C14.3704 41.0161 14.7778 41.0156 15.1852 41.0132C15.4987 41.0122 15.8121 41.0152 16.1256 41.0175C16.2944 41.0153 16.2944 41.0153 16.4666 41.0131C17.3172 41.0257 17.3172 41.0257 17.6675 41.3952C17.9939 41.8806 18.0045 42.1743 17.9992 42.8015C17.9706 43.1815 17.8772 43.4089 17.6938 43.7026C17.3724 43.9834 17.2622 43.9823 16.8854 43.9833C16.7218 43.9846 16.7218 43.9846 16.5549 43.9859C16.3753 43.9855 16.3753 43.9855 16.192 43.985C16.0647 43.9855 15.9374 43.9862 15.81 43.9869C15.4639 43.9886 15.1178 43.9887 14.7716 43.9883C14.4823 43.9882 14.1929 43.9888 13.9036 43.9894C13.2203 43.9908 12.537 43.9908 11.8537 43.9901C11.1503 43.9893 10.4469 43.9909 9.74353 43.9935C9.1388 43.9957 8.53408 43.9964 7.92935 43.996C7.56857 43.9958 7.20781 43.9961 6.84704 43.9979C6.50709 43.9994 6.16718 43.9992 5.82723 43.9976C5.64433 43.9971 5.46143 43.9985 5.27853 44C4.35119 43.9927 3.53346 43.842 2.79505 43.0586C2.20536 42.2619 2.04679 41.3806 2.04172 40.3069C2.04095 40.2158 2.04017 40.1247 2.03937 40.0309C2.03703 39.7302 2.03546 39.4296 2.03409 39.1289C2.03358 39.0261 2.03308 38.9232 2.03256 38.8172C2.03003 38.2731 2.02819 37.7291 2.02682 37.185C2.02556 36.735 2.02292 36.285 2.01905 35.835C2.01438 35.291 2.01203 34.7472 2.01136 34.2032C2.01072 33.9961 2.00928 33.7891 2.00701 33.582C2.00402 33.2923 2.00401 33.0027 2.00471 32.7129C2.00316 32.6277 2.0016 32.5425 2 32.4547C2.00472 31.9784 2.05294 31.7953 2.28848 31.4235C2.70569 30.9811 3.05049 30.9523 3.576 31.0393Z" fill="white"/>
<path d="M21.3644 31.4716C21.7887 31.7478 21.9384 32.0077 22.08 32.5365C22.0997 32.8704 22.109 33.1926 22.1081 33.5264C22.1089 33.6737 22.1089 33.6737 22.1097 33.8239C22.1111 34.1477 22.111 34.4713 22.1107 34.7951C22.1111 35.0206 22.1116 35.2462 22.1121 35.4718C22.1128 35.9443 22.1128 36.4168 22.1123 36.8893C22.1117 37.4942 22.1134 38.099 22.1158 38.7039C22.1173 39.1697 22.1174 39.6354 22.1171 40.1012C22.1171 40.3242 22.1176 40.5472 22.1187 40.7702C22.1199 41.0822 22.1192 41.3942 22.1181 41.7063C22.1192 41.8438 22.1192 41.8438 22.1204 41.984C22.1148 42.6563 22.0018 43.1614 21.5813 43.64C21.1861 43.8885 20.7782 43.8508 20.3422 43.7763C19.9717 43.5262 19.7757 43.2909 19.6267 42.8298C19.6061 42.4932 19.5966 42.1682 19.597 41.8316C19.5963 41.7311 19.5956 41.6306 19.5949 41.5271C19.5929 41.1951 19.5925 40.8631 19.5923 40.531C19.5917 40.3 19.591 40.0689 19.5903 39.8378C19.589 39.3535 19.5887 38.8691 19.5888 38.3848C19.5888 37.7646 19.586 37.1446 19.5825 36.5245C19.5802 36.0472 19.5798 35.57 19.5799 35.0927C19.5797 34.8641 19.5788 34.6355 19.5772 34.4069C19.5752 34.0869 19.5758 33.767 19.577 33.447C19.5759 33.3529 19.5747 33.2589 19.5735 33.162C19.5795 32.5464 19.6834 32.196 20.0356 31.7083C20.4697 31.3732 20.8547 31.3953 21.3644 31.4716Z" fill="white"/>
<path d="M132.244 31.4273C132.624 31.4304 132.853 31.4649 133.151 31.7452C133.556 32.2621 133.518 32.7398 133.52 33.4029C133.521 33.5034 133.522 33.6039 133.522 33.7074C133.524 34.0401 133.526 34.3727 133.527 34.7054C133.527 34.8191 133.527 34.9327 133.528 35.0498C133.53 35.6513 133.531 36.2528 133.532 36.8543C133.534 37.4753 133.537 38.0963 133.541 38.7174C133.544 39.1951 133.545 39.6729 133.545 40.1507C133.545 40.3796 133.547 40.6085 133.549 40.8374C133.551 41.158 133.551 41.4785 133.55 41.7991C133.552 41.8934 133.553 41.9876 133.554 42.0847C133.549 42.7012 133.446 43.0513 133.093 43.5397C132.68 43.8584 132.351 43.8414 131.867 43.7763C131.495 43.5842 131.379 43.4615 131.151 43.0665C131.13 42.7194 131.12 42.3835 131.12 42.0363C131.119 41.9311 131.118 41.8258 131.117 41.7173C131.115 41.3687 131.114 41.0201 131.113 40.6715C131.112 40.4294 131.111 40.1873 131.11 39.9452C131.109 39.4373 131.108 38.9295 131.108 38.4216C131.107 37.7708 131.103 37.1201 131.099 36.4694C131.096 35.9692 131.095 35.469 131.095 34.9688C131.094 34.7289 131.093 34.489 131.091 34.2491C131.088 33.9134 131.089 33.5779 131.09 33.2423C131.088 33.1432 131.087 33.0441 131.085 32.942C131.091 32.4244 131.109 32.2412 131.404 31.8268C131.489 31.7487 131.574 31.6705 131.662 31.59C131.829 31.3968 132.014 31.4376 132.244 31.4273Z" fill="white"/>
<path d="M107.742 31.4716C108.03 31.6135 108.187 31.7183 108.367 32.0131C108.502 32.439 108.488 32.861 108.487 33.3089C108.489 33.4614 108.489 33.4614 108.49 33.6169C108.491 33.9528 108.492 34.2886 108.492 34.6245C108.493 34.8582 108.493 35.0919 108.494 35.3257C108.495 35.8156 108.496 36.3055 108.496 36.7954C108.496 37.4227 108.498 38.0499 108.502 38.6772C108.504 39.16 108.505 39.6427 108.505 40.1254C108.505 40.3567 108.506 40.5879 108.507 40.8191C108.509 41.1428 108.509 41.4664 108.507 41.7901C108.509 41.8853 108.51 41.9805 108.511 42.0785C108.505 42.6979 108.399 43.0456 108.049 43.5397C107.7 43.8462 107.35 43.8273 106.924 43.7763C106.517 43.5271 106.262 43.3345 106.107 42.8298C106.086 42.4897 106.076 42.1609 106.075 41.8207C106.074 41.7191 106.074 41.6175 106.073 41.5128C106.07 41.1769 106.069 40.841 106.069 40.5051C106.068 40.2714 106.067 40.0377 106.066 39.804C106.064 39.3141 106.063 38.8242 106.063 38.3342C106.063 37.7069 106.059 37.0797 106.054 36.4524C106.051 35.9697 106.05 35.487 106.05 35.0042C106.05 34.773 106.049 34.5418 106.046 34.3105C106.044 33.9868 106.044 33.6633 106.045 33.3395C106.044 33.2444 106.042 33.1492 106.041 33.0512C106.046 32.5673 106.086 32.2699 106.353 31.8873C106.79 31.3961 107.154 31.4057 107.742 31.4716Z" fill="white"/>
<path d="M77.7336 61.2129C77.8262 61.2114 77.9189 61.2099 78.0143 61.2083C78.404 61.3146 78.659 61.5328 78.9156 61.8784C79.0765 62.2704 79.0765 62.2704 79.1903 62.7066C79.2107 62.7834 79.2312 62.8601 79.2522 62.9391C79.4452 63.6804 79.5975 64.4334 79.7333 65.1912C79.8008 65.1912 79.8683 65.1912 79.9378 65.1912C79.9378 63.9028 79.9378 62.6144 79.9378 61.2869C80.2751 61.2869 80.6124 61.2869 80.96 61.2869C80.9727 61.9163 80.9819 62.5457 80.9881 63.1753C80.9906 63.3893 80.9941 63.6033 80.9986 63.8173C81.0048 64.1254 81.0077 64.4334 81.0099 64.7416C81.0126 64.8368 81.0152 64.9321 81.0179 65.0303C81.0181 65.5375 80.9988 65.7255 80.7187 66.139C80.4111 66.4074 80.2674 66.4515 79.8867 66.4409C79.7459 66.4412 79.7459 66.4412 79.6024 66.4414C79.24 66.354 79.0815 66.1953 78.8133 65.9011C78.6709 65.5579 78.6709 65.5579 78.5622 65.1644C78.5024 64.9521 78.5024 64.9521 78.4414 64.7356C78.4018 64.5882 78.3622 64.4409 78.3214 64.2891C78.259 64.0667 78.259 64.0667 78.1954 63.8399C77.8933 62.7516 77.8933 62.7516 77.8933 62.47C77.8259 62.47 77.7584 62.47 77.6889 62.47C77.6889 63.7585 77.6889 65.0469 77.6889 66.3744C77.3516 66.3744 77.0142 66.3744 76.6667 66.3744C76.654 65.7449 76.6447 65.1156 76.6386 64.486C76.636 64.272 76.6325 64.0579 76.6281 63.8439C76.6219 63.5358 76.619 63.2279 76.6168 62.9197C76.6141 62.8244 76.6115 62.7291 76.6088 62.6309C76.6085 62.1236 76.6277 61.9359 76.9082 61.5225C77.2129 61.2561 77.356 61.2067 77.7336 61.2129Z" fill="white"/>
<path d="M69.9583 61.2499C70.0848 61.247 70.0848 61.247 70.2139 61.2441C70.7725 61.2436 71.168 61.3231 71.6578 61.6418C71.8359 61.8711 71.8359 61.8711 71.9517 62.1151C72.0114 62.2359 72.0114 62.2359 72.0723 62.3591C72.4038 63.1457 72.3912 64.3159 72.1976 65.1547C72.0002 65.6402 71.7386 65.9686 71.3511 66.2561C70.9152 66.4243 70.4981 66.401 70.0414 66.404C69.9504 66.4064 69.8594 66.4089 69.7657 66.4114C69.0619 66.4162 68.6237 66.2876 68.1056 65.7015C67.6755 65.0533 67.5907 64.2139 67.6711 63.4165C67.8039 62.6432 67.9922 62.071 68.4889 61.5235C68.9615 61.2243 69.4337 61.2476 69.9583 61.2499ZM68.8978 62.9433C68.7231 63.55 68.7324 64.0569 68.9297 64.644C69.0912 64.9803 69.0912 64.9803 69.4089 65.1913C69.6986 65.2378 69.6986 65.2378 70.0158 65.2356C70.1753 65.2407 70.1753 65.2407 70.3381 65.2458C70.7037 65.1788 70.8164 65.0475 71.0444 64.718C71.181 64.402 71.1715 64.1465 71.1786 63.7937C71.1824 63.6709 71.1863 63.5481 71.1902 63.4216C71.1346 62.962 71.0372 62.7779 70.7378 62.47C70.3949 62.3808 70.3949 62.3808 70.0222 62.4035C69.8356 62.4032 69.8356 62.4032 69.6453 62.403C69.2539 62.4805 69.134 62.5812 68.8978 62.9433Z" fill="white"/>
<path d="M112.996 61.2638C113.119 61.2645 113.242 61.2653 113.368 61.2661C113.559 61.269 113.559 61.269 113.754 61.2721C113.948 61.2737 113.948 61.2737 114.146 61.2753C114.465 61.2781 114.784 61.282 115.102 61.2869C115.102 61.6773 115.102 62.0677 115.102 62.47C114.293 62.5091 113.483 62.5481 112.649 62.5883C112.615 62.7835 112.581 62.9788 112.547 63.1799C113.39 63.2189 114.233 63.258 115.102 63.2982C115.102 63.6496 115.102 64.001 115.102 64.363C114.293 64.4021 113.483 64.4411 112.649 64.4814C112.649 64.6766 112.649 64.8718 112.649 65.0729C113.458 65.112 114.268 65.151 115.102 65.1912C115.102 65.5817 115.102 65.9721 115.102 66.3744C114.655 66.3847 114.208 66.391 113.761 66.3966C113.634 66.3995 113.508 66.4025 113.377 66.4056C113.255 66.4067 113.132 66.4079 113.006 66.4091C112.893 66.4109 112.781 66.4128 112.665 66.4147C112.291 66.368 112.049 66.2447 111.729 66.0194C111.381 65.4558 111.368 64.9126 111.422 64.2447C111.442 64.1633 111.461 64.0818 111.481 63.9979C111.547 63.7472 111.547 63.7472 111.422 63.4165C111.344 62.6479 111.426 62.144 111.831 61.5235C112.225 61.2841 112.555 61.2589 112.996 61.2638Z" fill="white"/>
<path d="M53.1959 61.2522C53.3188 61.2534 53.4416 61.2545 53.5682 61.2557C53.7593 61.2601 53.7593 61.2601 53.9542 61.2647C54.1482 61.2671 54.1482 61.2671 54.3461 61.2695C54.6648 61.2737 54.9835 61.2796 55.3022 61.2869C55.3022 61.6773 55.3022 62.0677 55.3022 62.47C54.4926 62.5091 53.683 62.5481 52.8489 62.5883C52.8489 62.7445 52.8489 62.9007 52.8489 63.0616C53.1005 63.2072 53.2841 63.2042 53.5652 63.2173C53.666 63.2223 53.7669 63.2273 53.8707 63.2324C53.9763 63.237 54.0818 63.2417 54.1906 63.2465C54.3501 63.2541 54.3501 63.2541 54.5128 63.2619C54.7759 63.2745 55.0391 63.2866 55.3022 63.2982C55.3022 63.6496 55.3022 64.001 55.3022 64.363C54.4926 64.4021 53.683 64.4411 52.8489 64.4814C52.8489 64.6766 52.8489 64.8718 52.8489 65.0729C53.6585 65.112 54.4681 65.151 55.3022 65.1912C55.3022 65.5817 55.3022 65.9721 55.3022 66.3744C54.8529 66.3847 54.4036 66.391 53.9542 66.3966C53.7631 66.401 53.7631 66.401 53.5682 66.4056C53.4454 66.4067 53.3225 66.4079 53.1959 66.4091C53.0265 66.4118 53.0265 66.4118 52.8536 66.4147C52.3674 66.3518 52.1131 66.1271 51.7947 65.7089C51.4971 65.0199 51.5938 64.3875 51.7244 63.6532C51.6907 63.536 51.657 63.4189 51.6222 63.2982C51.5826 62.7385 51.573 62.4635 51.7947 61.9598C52.2156 61.3937 52.5552 61.2417 53.1959 61.2522Z" fill="white"/>
<path d="M36.9226 61.2753C37.0461 61.2757 37.1697 61.2761 37.2969 61.2765C37.426 61.2775 37.5551 61.2785 37.6881 61.2795C37.8834 61.2803 37.8834 61.2803 38.0828 61.2811C38.4048 61.2825 38.7268 61.2844 39.0489 61.2869C39.0489 61.6773 39.0489 62.0677 39.0489 62.47C38.2393 62.5091 37.4297 62.5481 36.5956 62.5883C36.5956 62.7445 36.5956 62.9007 36.5956 63.0616C36.8471 63.2072 37.0308 63.2042 37.3119 63.2173C37.4127 63.2223 37.5135 63.2273 37.6174 63.2324C37.7229 63.237 37.8285 63.2417 37.9372 63.2465C38.0967 63.2541 38.0967 63.2541 38.2595 63.2619C38.5226 63.2745 38.7857 63.2866 39.0489 63.2982C39.0489 63.6496 39.0489 64.001 39.0489 64.363C38.2393 64.4021 37.4297 64.4411 36.5956 64.4814C36.5956 64.6766 36.5956 64.8718 36.5956 65.0729C37.4052 65.112 38.2148 65.151 39.0489 65.1912C39.0489 65.5817 39.0489 65.9721 39.0489 66.3744C38.5995 66.3847 38.1502 66.391 37.7008 66.3966C37.5098 66.401 37.5098 66.401 37.3149 66.4056C37.192 66.4067 37.0691 66.4079 36.9425 66.4091C36.7731 66.4118 36.7731 66.4118 36.6003 66.4147C36.1582 66.3575 35.8895 66.1672 35.5989 65.7828C35.2899 65.2107 35.3298 64.6245 35.4264 63.9785C35.4946 63.6437 35.4946 63.6437 35.3689 63.2982C35.3221 62.5804 35.4298 62.1038 35.8289 61.5457C36.1655 61.2372 36.5128 61.2731 36.9226 61.2753Z" fill="white"/>
<path d="M152.107 61.2869C152.556 61.2765 153.005 61.2703 153.455 61.2647C153.582 61.2617 153.709 61.2587 153.841 61.2557C153.964 61.2545 154.086 61.2534 154.213 61.2522C154.326 61.2503 154.439 61.2485 154.555 61.2466C154.99 61.3028 155.255 61.4993 155.56 61.853C155.727 62.2057 155.729 62.4762 155.729 62.8767C155.731 63.0083 155.733 63.14 155.735 63.2756C155.674 63.7317 155.558 63.9233 155.276 64.2447C154.892 64.4 154.892 64.4 154.56 64.4814C154.965 64.6766 155.37 64.8718 155.787 65.0729C155.787 65.5024 155.787 65.9319 155.787 66.3744C154.924 66.0534 154.078 65.6814 153.231 65.3096C153.197 65.661 153.164 66.0123 153.129 66.3744C152.792 66.3744 152.454 66.3744 152.107 66.3744C152.098 66.012 152.092 65.6498 152.087 65.2874C152.085 65.1851 152.082 65.0829 152.08 64.9775C152.074 64.3997 152.08 63.9987 152.413 63.5348C152.791 63.2431 153.105 63.2501 153.544 63.2317C154.068 63.2305 154.068 63.2305 154.56 63.0616C154.526 62.9054 154.493 62.7492 154.458 62.5883C153.294 62.5298 153.294 62.5298 152.107 62.47C152.107 62.0796 152.107 61.6891 152.107 61.2869Z" fill="white"/>
<path d="M146.237 61.4158C146.555 61.7067 146.654 62.016 146.778 62.4478C146.803 62.5286 146.828 62.6094 146.853 62.6926C146.937 62.9724 147.018 63.2534 147.098 63.5348C147.13 63.647 147.162 63.7591 147.195 63.8746C147.359 64.4526 147.52 65.0315 147.678 65.6118C147.704 65.7076 147.731 65.8033 147.757 65.902C147.813 66.1378 147.813 66.1378 147.813 66.3744C147.442 66.3744 147.071 66.3744 146.689 66.3744C146.415 65.6175 146.174 64.8521 145.948 64.0747C145.92 63.9808 145.893 63.887 145.864 63.7903C145.838 63.7012 145.813 63.6122 145.786 63.5205C145.763 63.4407 145.74 63.3609 145.716 63.2786C145.667 63.0616 145.667 63.0616 145.667 62.7066C145.599 62.7066 145.532 62.7066 145.462 62.7066C145.436 62.8555 145.41 63.0044 145.383 63.1577C145.257 63.8114 145.079 64.4393 144.894 65.0729C144.861 65.1856 144.829 65.2984 144.796 65.4145C144.556 66.2403 144.556 66.2403 144.44 66.3744C144.251 66.3829 144.061 66.3843 143.871 66.3818C143.768 66.3807 143.665 66.3797 143.558 66.3786C143.478 66.3772 143.398 66.3758 143.316 66.3744C143.468 65.4701 143.704 64.6048 143.955 63.7323C144.025 63.4889 144.094 63.245 144.162 63.001C144.206 62.8453 144.251 62.6895 144.296 62.5338C144.336 62.3937 144.376 62.2537 144.417 62.1094C144.534 61.7829 144.608 61.6145 144.849 61.4052C145.333 61.2185 145.769 61.1867 146.237 61.4158Z" fill="white"/>
<path d="M93.2315 61.4158C93.606 61.6962 93.7033 61.9759 93.8336 62.4478C93.8578 62.5286 93.882 62.6094 93.9069 62.6926C93.9896 62.9724 94.0683 63.2534 94.1467 63.5348C94.1945 63.703 94.1945 63.703 94.2432 63.8746C94.4074 64.4526 94.5694 65.0314 94.7273 65.6118C94.7533 65.7076 94.7794 65.8033 94.8063 65.902C94.8622 66.1378 94.8622 66.1378 94.8622 66.3744C94.4912 66.3744 94.1201 66.3744 93.7378 66.3744C93.4456 65.55 93.1849 64.7217 92.9456 63.875C92.9133 63.7618 92.881 63.6487 92.8477 63.5321C92.7693 63.257 92.6912 62.9819 92.6133 62.7066C92.5829 62.8135 92.5525 62.9205 92.5211 63.0306C92.4084 63.426 92.2954 63.8214 92.1822 64.2166C92.1332 64.3879 92.0843 64.5593 92.0356 64.7307C91.9656 64.9766 91.8952 65.2223 91.8247 65.4681C91.7824 65.6162 91.7401 65.7642 91.6965 65.9168C91.5911 66.2561 91.5911 66.2561 91.4889 66.3744C91.1141 66.3913 90.7394 66.3794 90.3644 66.3744C90.5701 65.3465 90.8314 64.3535 91.1311 63.3574C91.171 63.221 91.211 63.0847 91.2521 62.9442C91.3108 62.7479 91.3108 62.7479 91.3707 62.5477C91.4057 62.4303 91.4407 62.3129 91.4767 62.192C91.5901 61.8812 91.7021 61.6545 91.8978 61.4052C92.3701 61.223 92.761 61.2211 93.2315 61.4158Z" fill="white"/>
<path d="M127.676 61.2869C127.979 61.2869 128.283 61.2869 128.596 61.2869C128.598 61.3734 128.6 61.4599 128.602 61.549C128.611 61.9423 128.623 62.3356 128.634 62.7288C128.637 62.8649 128.64 63.0011 128.643 63.1413C128.647 63.2729 128.651 63.4044 128.655 63.5399C128.659 63.6608 128.662 63.7816 128.665 63.9061C128.699 64.258 128.765 64.5203 128.902 64.8363C129.221 65.0206 129.577 65.0214 129.924 64.9546C130.1 64.8262 130.1 64.8262 130.231 64.5997C130.283 64.2449 130.283 64.2449 130.283 63.8403C130.287 63.692 130.291 63.5437 130.294 63.3909C130.297 63.2359 130.299 63.0808 130.301 62.9211C130.305 62.7631 130.308 62.6051 130.312 62.4471C130.32 62.0604 130.327 61.6737 130.333 61.2869C130.671 61.2869 131.008 61.2869 131.356 61.2869C131.363 61.7962 131.369 62.3055 131.372 62.8149C131.374 62.988 131.376 63.161 131.379 63.334C131.382 63.5837 131.384 63.8333 131.386 64.083C131.387 64.2329 131.389 64.3829 131.39 64.5373C131.341 65.1338 131.181 65.5197 130.806 65.9307C130.164 66.4265 129.556 66.4684 128.8 66.3744C128.299 66.1834 127.959 65.8183 127.676 65.3096C127.641 64.98 127.627 64.6996 127.636 64.3718C127.636 64.2834 127.637 64.1949 127.637 64.1038C127.64 63.8229 127.645 63.5421 127.65 63.2612C127.652 63.0701 127.654 62.879 127.656 62.6879C127.66 62.2208 127.667 61.7539 127.676 61.2869Z" fill="white"/>
<path d="M105.128 61.2753C105.232 61.2757 105.337 61.2761 105.445 61.2765C105.554 61.2775 105.662 61.2785 105.774 61.2795C105.885 61.28 105.995 61.2805 106.109 61.2811C106.381 61.2825 106.653 61.2846 106.924 61.2869C106.924 61.6773 106.924 62.0677 106.924 62.47C106.697 62.4746 106.697 62.4746 106.466 62.4793C106.267 62.4859 106.069 62.4927 105.87 62.4996C105.77 62.5013 105.671 62.503 105.568 62.5047C105.472 62.5085 105.376 62.5123 105.277 62.5162C105.145 62.52 105.145 62.52 105.01 62.5237C104.763 62.567 104.763 62.567 104.596 62.8082C104.431 63.1436 104.434 63.3878 104.439 63.7715C104.44 63.8935 104.44 64.0155 104.44 64.1412C104.471 64.4762 104.517 64.6748 104.676 64.9546C104.916 65.0936 105.079 65.0966 105.347 65.1104C105.485 65.1178 105.485 65.1178 105.625 65.1254C105.72 65.13 105.816 65.1347 105.915 65.1395C106.06 65.1472 106.06 65.1472 106.208 65.155C106.447 65.1675 106.686 65.1795 106.924 65.1913C106.924 65.5817 106.924 65.9721 106.924 66.3744C106.528 66.3847 106.132 66.391 105.736 66.3966C105.624 66.3996 105.512 66.4025 105.397 66.4056C104.341 66.4167 104.341 66.4167 103.858 66.0195C103.69 65.8161 103.69 65.8161 103.57 65.6054C103.53 65.5358 103.489 65.4663 103.447 65.3946C103.105 64.7004 103.165 63.7208 103.244 62.9433C103.42 62.2835 103.651 61.7771 104.164 61.4052C104.49 61.2843 104.787 61.2731 105.128 61.2753Z" fill="white"/>
<path d="M61.4911 61.2753C61.6008 61.2757 61.7105 61.2761 61.8235 61.2765C61.9379 61.2775 62.0524 61.2785 62.1703 61.2795C62.3437 61.2803 62.3437 61.2803 62.5207 61.2811C62.8064 61.2825 63.0921 61.2844 63.3778 61.2869C63.3778 61.6773 63.3778 62.0677 63.3778 62.47C63.1378 62.4787 63.1378 62.4787 62.893 62.4876C62.684 62.4965 62.4751 62.5054 62.2661 62.5144C62.1078 62.5199 62.1078 62.5199 61.9463 62.5255C61.7951 62.5323 61.7951 62.5323 61.6408 62.5393C61.5477 62.5431 61.4545 62.5468 61.3585 62.5506C61.1085 62.5645 61.1085 62.5645 60.9244 62.825C60.8907 62.9811 60.857 63.1373 60.8222 63.2982C61.6656 63.2982 62.5089 63.2982 63.3778 63.2982C63.3778 63.6496 63.3778 64.001 63.3778 64.363C62.5344 64.363 61.6911 64.363 60.8222 64.363C60.8222 65.0268 60.8222 65.6905 60.8222 66.3744C60.4849 66.3744 60.1476 66.3744 59.8 66.3744C59.7924 65.8482 59.7868 65.322 59.7832 64.7958C59.7816 64.617 59.7795 64.4382 59.7769 64.2595C59.7731 64.0016 59.7714 63.7438 59.7701 63.4859C59.7684 63.331 59.7668 63.1761 59.7652 63.0165C59.815 62.404 59.9732 62.0213 60.3622 61.6048C60.7493 61.3024 61.035 61.2725 61.4911 61.2753Z" fill="white"/>
<path d="M43.4444 61.2869C43.8155 61.2869 44.1866 61.2869 44.5689 61.2869C44.5739 61.4922 44.5789 61.6974 44.5841 61.9089C44.5917 62.1798 44.5995 62.4506 44.6072 62.7214C44.6104 62.8566 44.6135 62.9917 44.6168 63.1309C44.6208 63.2621 44.6247 63.3932 44.6288 63.5284C44.632 63.6486 44.6352 63.7688 44.6385 63.8926C44.6746 64.2828 44.7346 64.597 44.8756 64.9546C45.0637 65.0709 45.0637 65.0709 45.2844 65.0729C45.391 65.085 45.391 65.085 45.4998 65.0972C45.5747 65.1016 45.6497 65.1059 45.7269 65.1104C45.8494 65.1178 45.8494 65.1178 45.9744 65.1254C46.0588 65.13 46.1431 65.1347 46.23 65.1395C46.3589 65.1472 46.3589 65.1472 46.4903 65.155C46.7017 65.1675 46.9131 65.1794 47.1244 65.1912C47.1244 65.5817 47.1244 65.9721 47.1244 66.3744C46.7837 66.384 46.4431 66.391 46.1022 66.3966C45.9589 66.401 45.9589 66.401 45.8127 66.4056C45.1864 66.4132 44.7284 66.3306 44.16 66.0195C43.5077 65.2644 43.4398 64.3499 43.4345 63.332C43.4351 63.0865 43.4363 62.8411 43.4381 62.5957C43.4385 62.4697 43.439 62.3436 43.4395 62.2137C43.4406 61.9048 43.4425 61.5958 43.4444 61.2869Z" fill="white"/>
<path d="M135.751 61.2869C136.088 61.2869 136.426 61.2869 136.773 61.2869C136.778 61.4467 136.783 61.6065 136.789 61.7712C136.796 61.9844 136.804 62.1976 136.812 62.4109C136.815 62.5158 136.818 62.6207 136.821 62.7288C136.852 63.5254 136.893 64.2751 137.284 64.9546C137.556 65.0595 137.742 65.0942 138.024 65.1104C138.147 65.1178 138.147 65.1178 138.272 65.1254C138.357 65.13 138.443 65.1347 138.53 65.1395C138.66 65.1472 138.66 65.1472 138.792 65.155C139.005 65.1675 139.218 65.1794 139.431 65.1912C139.431 65.5817 139.431 65.9721 139.431 66.3744C139.09 66.384 138.75 66.391 138.409 66.3966C138.266 66.401 138.266 66.401 138.119 66.4056C137.353 66.4149 136.749 66.3322 136.173 65.6941C135.662 64.7891 135.726 63.8826 135.738 62.8324C135.739 62.6837 135.74 62.5351 135.741 62.382C135.744 62.0169 135.747 61.6519 135.751 61.2869Z" fill="white"/>
<path d="M119.498 61.2869C119.835 61.2869 120.172 61.2869 120.52 61.2869C120.525 61.4467 120.53 61.6065 120.535 61.7712C120.543 61.9844 120.551 62.1976 120.558 62.4109C120.561 62.5158 120.565 62.6207 120.568 62.7288C120.598 63.5254 120.64 64.2751 121.031 64.9546C121.303 65.0595 121.489 65.0942 121.77 65.1104C121.893 65.1178 121.893 65.1178 122.019 65.1254C122.104 65.13 122.189 65.1347 122.277 65.1395C122.407 65.1472 122.407 65.1472 122.539 65.155C122.752 65.1675 122.965 65.1794 123.178 65.1912C123.178 65.5817 123.178 65.9721 123.178 66.3744C122.837 66.384 122.496 66.391 122.156 66.3966C122.012 66.401 122.012 66.401 121.866 66.4056C121.1 66.4149 120.496 66.3322 119.919 65.6941C119.408 64.7891 119.473 63.8826 119.485 62.8324C119.486 62.6837 119.487 62.5351 119.488 62.382C119.49 62.0169 119.494 61.6519 119.498 61.2869Z" fill="white"/>
<path d="M28.1111 61.2869C29.0556 61.2869 30.0002 61.2869 30.9733 61.2869C30.9733 61.6773 30.9733 62.0677 30.9733 62.47C30.6697 62.47 30.3661 62.47 30.0533 62.47C30.0533 63.7585 30.0533 65.0469 30.0533 66.3744C29.716 66.3744 29.3787 66.3744 29.0311 66.3744C29.0311 65.0859 29.0311 63.7975 29.0311 62.47C28.7275 62.47 28.4239 62.47 28.1111 62.47C28.1111 62.0796 28.1111 61.6891 28.1111 61.2869Z" fill="white"/>
<path d="M85.4578 61.2869C85.7951 61.2869 86.1324 61.2869 86.48 61.2869C86.48 62.9658 86.48 64.6446 86.48 66.3744C86.1427 66.3744 85.8053 66.3744 85.4578 66.3744C85.4578 64.6955 85.4578 63.0166 85.4578 61.2869Z" fill="white"/>
<path d="M133.093 22.7164C133.346 22.8335 133.346 22.8335 133.604 22.953C133.613 23.2043 133.619 23.4558 133.624 23.7073C133.627 23.8473 133.631 23.9873 133.634 24.1315C133.625 24.2502 133.615 24.3688 133.604 24.4911C133.298 24.7277 133.298 24.7277 132.889 24.7277C132.889 24.8839 132.889 25.0401 132.889 25.201C132.754 25.201 132.619 25.201 132.48 25.201C132.446 24.8886 132.413 24.5763 132.378 24.2545C132.277 24.2154 132.175 24.1764 132.071 24.1361C132.051 23.6965 132.056 23.5715 132.276 23.1896C132.377 23.1896 132.478 23.1896 132.582 23.1896C132.582 23.1115 132.582 23.0335 132.582 22.953C132.751 22.953 132.92 22.953 133.093 22.953C133.093 22.8749 133.093 22.7968 133.093 22.7164Z" fill="#FEF1CE"/>
<path d="M131.886 22.7016C131.997 22.7037 132.108 22.7059 132.222 22.7081C132.35 22.7122 132.35 22.7122 132.48 22.7164C132.378 22.953 132.378 22.953 132.129 23.0787C131.82 23.3484 131.825 23.425 131.764 23.8478C131.724 24.1324 131.724 24.1324 131.662 24.3728C131.394 24.5576 131.394 24.5576 131.151 24.6094C131.049 24.4911 131.049 24.4911 131.035 24.229C131.036 24.1227 131.036 24.0164 131.036 23.9069C131.036 23.8009 131.036 23.6949 131.035 23.5857C131.049 23.3079 131.049 23.3079 131.151 23.0713C131.084 23.0323 131.016 22.9932 130.947 22.953C131.307 22.6748 131.461 22.691 131.886 22.7016Z" fill="#FFD880"/>
<path d="M132.48 23.4263C132.75 23.4263 133.02 23.4263 133.298 23.4263C133.365 23.6215 133.433 23.8167 133.502 24.0178C133.387 24.1953 133.387 24.1953 133.196 24.3728C132.87 24.395 132.87 24.395 132.582 24.3728C132.444 24.0523 132.473 23.7801 132.48 23.4263Z" fill="#FCF9F3"/>
<path d="M134.116 24.1361C134.284 24.2533 134.453 24.3704 134.627 24.4911C134.587 24.7785 134.555 24.9299 134.372 25.1358C134.311 25.1842 134.249 25.2325 134.186 25.2823C134.125 25.3316 134.064 25.3808 134.002 25.4316C133.802 25.5606 133.624 25.6222 133.4 25.6742C133.366 25.5961 133.333 25.5181 133.298 25.4376C133.376 25.3766 133.454 25.3156 133.534 25.2527C133.872 24.8983 133.961 24.6263 134.116 24.1361Z" fill="#FED17B"/>
<path d="M131.662 23.5446C131.814 23.6617 131.814 23.6617 131.969 23.7812C132.006 24.0567 132.041 24.3328 132.071 24.6094C132.139 24.6484 132.206 24.6875 132.276 24.7277C132.276 24.8058 132.276 24.8839 132.276 24.9643C132.308 25.1226 132.342 25.2805 132.378 25.4376C132.31 25.4376 132.243 25.4376 132.173 25.4376C132.173 25.3595 132.173 25.2814 132.173 25.201C132.005 25.201 131.836 25.201 131.662 25.201C131.662 24.6544 131.662 24.1077 131.662 23.5446Z" fill="#FFE38E"/>
<path d="M131.764 26.6097C131.716 26.6829 131.667 26.7561 131.618 26.8315C131.398 27.3386 131.383 27.8243 131.356 28.3844C131.254 28.3844 131.153 28.3844 131.049 28.3844C131.046 28.1922 131.044 27.9999 131.043 27.8076C131.041 27.7006 131.04 27.5935 131.039 27.4832C131.049 27.2013 131.049 27.2013 131.151 26.9646C131.084 26.9256 131.016 26.8866 130.947 26.8463C131.277 26.5917 131.385 26.5859 131.764 26.6097Z" fill="#FDCB72"/>
<path d="M133.093 22.7164C133.346 22.8335 133.346 22.8335 133.604 22.953C133.537 23.1092 133.47 23.2653 133.4 23.4263C133.063 23.3872 132.725 23.3482 132.378 23.3079C132.344 23.5812 132.31 23.8546 132.276 24.1361C132.208 24.019 132.141 23.9019 132.071 23.7812C132.161 23.4632 132.161 23.4632 132.276 23.1896C132.377 23.1896 132.478 23.1896 132.582 23.1896C132.582 23.1115 132.582 23.0335 132.582 22.953C132.751 22.953 132.92 22.953 133.093 22.953C133.093 22.8749 133.093 22.7968 133.093 22.7164Z" fill="#FFECB5"/>
<path d="M133.502 23.6629C133.536 23.6629 133.57 23.6629 133.604 23.6629C133.624 24.0622 133.624 24.0622 133.604 24.4911C133.298 24.7277 133.298 24.7277 132.889 24.7277C132.889 24.8839 132.889 25.0401 132.889 25.201C132.754 25.201 132.619 25.201 132.48 25.201C132.446 24.8886 132.413 24.5763 132.378 24.2545C132.411 24.3325 132.445 24.4106 132.48 24.4911C133 24.5045 133 24.5045 133.502 24.3728C133.502 24.1385 133.502 23.9042 133.502 23.6629Z" fill="#FFEEBB"/>
<path d="M133.911 24.7277C133.768 25.1283 133.625 25.3408 133.298 25.5559C132.927 25.652 132.927 25.652 132.582 25.6742C132.515 25.5961 132.447 25.5181 132.378 25.4376C132.466 25.4083 132.555 25.379 132.646 25.3489C133.001 25.2141 133.001 25.2141 133.317 24.9496C133.604 24.7277 133.604 24.7277 133.911 24.7277Z" fill="#FFE18D"/>
<path d="M133.911 23.5446C134.012 23.5446 134.114 23.5446 134.218 23.5446C134.397 23.8256 134.397 23.8256 134.524 24.1361C134.491 24.2142 134.457 24.2923 134.422 24.3728C134.355 24.3337 134.287 24.2947 134.218 24.2545C134.117 24.3716 134.015 24.4887 133.911 24.6094C133.911 24.258 133.911 23.9066 133.911 23.5446Z" fill="#FFDE97"/>
</svg>
